<?xml version="1.0" encoding="utf-8"?>
<!-- Generator: Adobe Illustrator 16.0.0, SVG Export Plug-In . SVG Version: 6.00 Build 0)  -->
<!DOCTYPE svg PUBLIC "-//W3C//DTD SVG 1.1//EN" "http://www.w3.org/Graphics/SVG/1.1/DTD/svg11.dtd">
<svg version="1.1" id="Camada_1" xmlns="http://www.w3.org/2000/svg" xmlns:xlink="http://www.w3.org/1999/xlink" x="0px" y="0px"
	 width="230px" height="90px" viewBox="0 0 230 90" enable-background="new 0 0 230 90" xml:space="preserve">
<g>
	<g>
		<g>
			<path fill-rule="evenodd" clip-rule="evenodd" fill="#D61A0C" d="M65.05,10.65c-4.5-1.267-9-1.816-13.5-1.65
				c-4.2,0.133-8.3,0.883-12.3,2.25c-3.8,1.333-7.35,3.183-10.65,5.55c-3.233,2.3-6.083,5.017-8.55,8.15
				c-2.5,3.133-4.483,6.533-5.95,10.2c-1.534,3.733-2.483,7.583-2.85,11.55c-0.4,4.133-0.15,8.25,0.75,12.35
				c0.934,4.3,2.533,8.434,4.8,12.4C12.867,67.184,9.934,62.634,8,57.8c-1.833-4.566-2.75-9.217-2.75-13.95
				c0-4.5,0.816-8.9,2.45-13.2c1.566-4.167,3.783-8,6.65-11.5c2.833-3.433,6.167-6.316,10-8.65c3.867-2.433,7.983-4.117,12.35-5.05
				c4.633-0.967,9.267-1.05,13.9-0.25C55.566,6.033,60.383,7.85,65.05,10.65z"/>
		</g>
		<g>
			<path fill-rule="evenodd" clip-rule="evenodd" fill="#D61A0C" d="M18.8,69.1c-2.133-3.966-3.533-8.399-4.2-13.3
				c1.767,4,3.917,7.533,6.45,10.601c2.4,2.933,5.134,5.416,8.2,7.449c2.9,1.934,6.017,3.4,9.35,4.4
				c3.233,0.967,6.533,1.434,9.9,1.4c3.333,0,6.617-0.467,9.85-1.4c3.267-0.967,6.333-2.366,9.2-4.2c3-1.899,5.667-4.184,8-6.85
				c2.467-2.834,4.5-6.017,6.1-9.55c-0.833,4.666-2.383,8.866-4.65,12.6c-2.133,3.533-4.816,6.533-8.05,9
				c-3.034,2.366-6.434,4.15-10.2,5.35c-3.6,1.2-7.333,1.767-11.2,1.7c-3.9-0.033-7.616-0.684-11.15-1.95
				c-3.7-1.366-7.017-3.3-9.95-5.8C23.316,75.95,20.767,72.8,18.8,69.1z"/>
		</g>
		<g>
			<path fill-rule="evenodd" clip-rule="evenodd" fill="#D61A0C" d="M62.5,21.55c2.267,1.934,3.684,4.417,4.25,7.45l-0.1,38.5
				c-0.233,1.066-0.517,1.917-0.85,2.55c-0.366,0.733-0.833,1.25-1.4,1.55c-1.733-0.566-3.2-1.449-4.4-2.649
				c-1.066-1.066-1.983-2.434-2.75-4.101c-1,1.034-2.167,1.983-3.5,2.851c-1.3,0.8-2.717,1.467-4.25,2
				c-3.267,1.133-6.5,1.566-9.7,1.3c-3.533-0.366-6.5-1.583-8.9-3.65c-2.767-2.333-4.566-5.583-5.4-9.75
				c-0.833-8.466,2.233-14.083,9.2-16.85c2.833-1.167,6.366-1.833,10.6-2c3.434-0.2,7.417-0.05,11.95,0.45l0.05-3.15
				c0-1.133-0.017-2.066-0.05-2.8c-0.133-1.933-0.467-3.45-1-4.55c-0.667-1.333-1.733-2.317-3.2-2.95c-1.6-0.7-3.833-1.067-6.7-1.1
				c-1.767-0.433-3.25-1.217-4.45-2.35c-0.966-0.867-1.867-2.083-2.7-3.65c2.1-0.733,4.517-1.183,7.25-1.35
				c3-0.2,5.85,0.017,8.55,0.65C58.066,18.683,60.566,19.883,62.5,21.55z M36.45,50.55c-1.167,1.566-1.717,3.384-1.65,5.45
				c-0.167,1.333,0.083,2.533,0.75,3.6c0.6,1.034,1.5,1.917,2.7,2.65c1.133,0.634,2.434,1.1,3.9,1.4c1.5,0.267,3,0.3,4.5,0.1
				c1.667-0.167,3.167-0.6,4.5-1.3c1.5-0.8,2.733-1.884,3.7-3.25c2.3-3.2,3.1-7.783,2.4-13.75c-3.167-0.267-6.083-0.267-8.75,0
				c-2.8,0.267-5.2,0.816-7.2,1.649C39.167,48,37.55,49.15,36.45,50.55z"/>
		</g>
		<g>
			<path fill-rule="evenodd" clip-rule="evenodd" fill="#D61A0C" d="M78.55,13.1c1.167-1,2.6-1.817,4.3-2.45
				c1.5-0.566,3.367-1.017,5.6-1.35c1.433-0.167,3.667-0.4,6.7-0.7c3.367-0.267,5.85-0.5,7.45-0.7l-0.25,16.75
				c-0.6,5.6-2.534,9.8-5.8,12.6l-0.1-15.35c-0.4-1.7-1.2-3.033-2.4-4c-1.066-0.867-2.333-1.383-3.8-1.55
				c-1.367-0.133-2.65,0.033-3.85,0.5c-1.233,0.533-2.1,1.233-2.6,2.1c-0.3-0.434-0.65-0.9-1.05-1.4
				c-0.533-0.566-1.033-0.983-1.5-1.25c-0.5-0.333-0.934-0.417-1.3-0.25c-0.4,0.2-0.634,0.767-0.7,1.7L79.1,36.8
				c0.2,0.5,0.517,0.983,0.95,1.45c0.434,0.5,0.884,0.883,1.35,1.15c0.5,0.3,0.934,0.35,1.3,0.15c0.366-0.167,0.6-0.633,0.7-1.4
				v-14.1c0.133-1.267,0.65-2.267,1.55-3c0.8-0.667,1.767-1.017,2.9-1.05c1.1,0,2.066,0.283,2.9,0.85c0.833,0.667,1.3,1.55,1.4,2.65
				l0.1,13.5c0.367,0.7,0.917,1.417,1.65,2.15c-2.533,1.434-5.7,2.3-9.5,2.6c-3.333,0.3-7.267,0.217-11.8-0.25
				C71.333,28.333,73.316,18.867,78.55,13.1z"/>
		</g>
		<g>
			<path fill-rule="evenodd" clip-rule="evenodd" fill="#5F6A70" d="M128.35,65.35c-1.933-0.5-3.383-1.833-4.35-4
				c-2.134,1.934-4.384,3.15-6.75,3.65c-2.134,0.4-4.15,0.217-6.05-0.55c-1.833-0.733-3.317-1.9-4.45-3.5
				c-1.133-1.601-1.733-3.334-1.8-5.2c-0.233-5.9,3.5-9.25,11.2-10.05l7.8,0.3v-5c-0.434-2.367-2.684-3.65-6.75-3.85
				c-1.634-0.5-2.934-1.65-3.9-3.45c2.233-0.6,4.351-0.85,6.351-0.75c1.833,0.133,3.5,0.533,5,1.2c1.433,0.6,2.6,1.4,3.5,2.4
				c0.833,1,1.333,2.083,1.5,3.25v23.3C129.517,64.134,129.083,64.884,128.35,65.35z M124.1,49.8c-8.933-0.7-13.45,1.5-13.55,6.601
				c0.034,1.433,0.7,2.533,2,3.3c1.233,0.666,2.717,0.967,4.45,0.899c2.434-0.1,4.25-0.85,5.45-2.25
				C124.05,56.55,124.6,53.7,124.1,49.8z"/>
		</g>
		<g>
			<path fill-rule="evenodd" clip-rule="evenodd" fill="#5F6A70" d="M200,55.8c-0.267-5.899,3.45-9.25,11.15-10.05l7.899,0.3v-5
				c-0.434-2.367-2.717-3.65-6.85-3.85c-1.601-0.5-2.9-1.65-3.9-3.45c2.233-0.6,4.384-0.833,6.45-0.7c1.833,0.1,3.5,0.483,5,1.15
				c1.4,0.6,2.533,1.4,3.4,2.4c0.866,1,1.399,2.083,1.6,3.25v23.3c-0.134,1.033-0.583,1.783-1.35,2.25c-1.967-0.5-3.4-1.834-4.301-4
				c-2.166,1.933-4.416,3.133-6.75,3.6c-2.133,0.434-4.183,0.267-6.149-0.5c-1.767-0.733-3.233-1.9-4.4-3.5
				C200.667,59.4,200.066,57.667,200,55.8z M212.1,60.65c2.434-0.067,4.25-0.817,5.45-2.25c1.566-1.801,2.101-4.65,1.601-8.551
				c-8.9-0.733-13.417,1.467-13.551,6.601c0,1.434,0.684,2.533,2.051,3.3C208.816,60.417,210.3,60.717,212.1,60.65z"/>
		</g>
		<g>
			<path fill-rule="evenodd" clip-rule="evenodd" fill="#5F6A70" d="M151.4,34.6c0.3,0.467,0.416,0.95,0.35,1.45
				s-0.267,0.983-0.6,1.45c-0.367,0.433-0.817,0.733-1.351,0.9l-4.35,0.05L145.4,63.1c-0.101,1.067-0.551,1.817-1.351,2.25
				c-1.967-0.533-3.483-1.866-4.55-4V38.4l-3,0.05c-0.4-0.1-0.783-0.333-1.15-0.7c-0.366-0.4-0.633-0.833-0.8-1.3
				c-0.167-0.534-0.133-1.034,0.101-1.5c0.3-0.534,0.85-0.983,1.649-1.35l3.2-0.15l0.15-5.45c0.166-0.9,0.583-1.6,1.25-2.1
				c2.1,0.8,3.6,2.133,4.5,4v3.55h4.399C150.533,33.717,151.066,34.1,151.4,34.6z"/>
		</g>
		<g>
			<path fill-rule="evenodd" clip-rule="evenodd" fill="#5F6A70" d="M160.5,22.3c0.833,0,1.533,0.3,2.1,0.9
				c0.601,0.566,0.9,1.25,0.9,2.05c0,0.867-0.3,1.567-0.9,2.1c-0.566,0.6-1.267,0.9-2.1,0.9c-0.8,0-1.483-0.3-2.05-0.9
				c-0.601-0.533-0.9-1.233-0.9-2.1c0-0.8,0.3-1.483,0.9-2.05C159.017,22.6,159.7,22.3,160.5,22.3z"/>
		</g>
		<g>
			<path fill-rule="evenodd" clip-rule="evenodd" fill="#5F6A70" d="M158.9,32.5c1.899,0.4,3.433,1.783,4.6,4.15v26.5
				c-0.2,0.6-0.384,1.066-0.55,1.399c-0.267,0.434-0.584,0.75-0.95,0.95c-1.033-0.566-1.85-1.116-2.45-1.65
				c-0.866-0.699-1.517-1.533-1.95-2.5c0-3.033,0-7.449,0-13.25c0.033-5.966,0.033-10.383,0-13.25
				C157.9,33.817,158.333,33.033,158.9,32.5z"/>
		</g>
		<g>
			<path fill-rule="evenodd" clip-rule="evenodd" fill="#5F6A70" d="M195.55,41.6v21.35c-0.1,0.533-0.25,0.983-0.45,1.35
				c-0.233,0.467-0.566,0.834-1,1.101c-0.967-0.367-1.833-0.934-2.6-1.7c-0.634-0.566-1.267-1.334-1.9-2.3V43.15
				c0.033-0.633-0.116-1.233-0.449-1.8c-0.233-0.6-0.617-1.133-1.15-1.6c-0.5-0.433-1.083-0.8-1.75-1.1
				c-0.667-0.3-1.35-0.483-2.05-0.55c-1.567-0.2-2.917,0.133-4.05,1c-1.367,0.933-2.233,2.467-2.601,4.6l-0.05,19.45
				c-0.167,1.066-0.617,1.85-1.35,2.35c-1.034-0.533-1.884-1.083-2.551-1.65c-0.8-0.699-1.433-1.517-1.899-2.449V35.1
				c0.166-1.167,0.6-2.017,1.3-2.55c1.233,0.434,2.3,1.034,3.2,1.8c0.733,0.7,1.35,1.566,1.85,2.6c1.467-1.934,3.25-3.15,5.351-3.65
				c1.866-0.433,3.767-0.283,5.699,0.45c1.834,0.7,3.367,1.783,4.601,3.25S195.55,40,195.55,41.6z"/>
		</g>
		<g>
			<path fill-rule="evenodd" clip-rule="evenodd" fill="#5F6A70" d="M158.75,84.35V75.1h1.8l3.851,6.2v-6.2h1.75v9.25h-1.9
				l-3.75-6.05v6.05H158.75z M151.45,77.8c-0.067-0.467-0.233-0.8-0.5-1s-0.667-0.3-1.2-0.3s-0.967,0.1-1.3,0.3
				c-0.167,0.167-0.25,0.367-0.25,0.601s0.083,0.416,0.25,0.55c0.233,0.2,0.816,0.399,1.75,0.6c0.866,0.233,1.533,0.467,2,0.7
				c0.433,0.233,0.767,0.533,1,0.9c0.267,0.399,0.399,0.899,0.399,1.5c0,0.533-0.149,1.033-0.449,1.5
				c-0.301,0.466-0.717,0.816-1.25,1.05c-0.534,0.2-1.217,0.3-2.051,0.3c-1.133,0-2.017-0.25-2.649-0.75
				c-0.634-0.566-1.017-1.366-1.15-2.4l1.8-0.199c0.134,0.633,0.367,1.1,0.7,1.399c0.3,0.233,0.75,0.351,1.351,0.351
				c0.6,0,1.066-0.101,1.399-0.301c0.267-0.267,0.4-0.583,0.4-0.949c0-0.233-0.067-0.417-0.2-0.551
				c-0.1-0.133-0.316-0.267-0.65-0.399c-0.199-0.066-0.699-0.184-1.5-0.351c-1-0.267-1.699-0.583-2.1-0.949
				c-0.533-0.534-0.8-1.167-0.8-1.9c0-0.467,0.116-0.9,0.35-1.3c0.267-0.4,0.667-0.717,1.2-0.95c0.467-0.2,1.066-0.3,1.8-0.3
				c1.167,0,2.033,0.25,2.601,0.75c0.566,0.533,0.866,1.217,0.899,2.05L151.45,77.8z M143.85,76.2c0.801,0.833,1.2,2,1.2,3.5
				c0,1.533-0.399,2.717-1.2,3.55c-0.8,0.833-1.883,1.25-3.25,1.25c-1.366,0-2.467-0.417-3.3-1.25c-0.8-0.833-1.2-1.983-1.2-3.45
				c0-0.967,0.15-1.767,0.45-2.399c0.167-0.467,0.45-0.884,0.851-1.25c0.366-0.367,0.75-0.667,1.149-0.9
				c0.601-0.2,1.283-0.3,2.05-0.3C141.967,74.95,143.05,75.366,143.85,76.2z M140.6,76.55c-0.767,0-1.383,0.25-1.85,0.75
				c-0.5,0.566-0.75,1.367-0.75,2.4s0.25,1.833,0.75,2.399c0.467,0.534,1.083,0.801,1.85,0.801c0.733,0,1.334-0.267,1.801-0.801
				c0.533-0.533,0.8-1.35,0.8-2.449c0-1.067-0.233-1.851-0.7-2.351C142,76.8,141.366,76.55,140.6,76.55z M131.3,82l2.25-6.9h2
				l-3.3,9.25h-2l-3.35-9.25h2.05L131.3,82z M126.1,84.35H124.2V75.1h1.899V84.35z M199.2,78.5c0.133-0.167,0.2-0.4,0.2-0.7
				s-0.084-0.533-0.25-0.7c-0.167-0.233-0.417-0.366-0.75-0.399c-0.134-0.033-0.584-0.05-1.351-0.05h-1.45V79h1.4
				c0.866,0,1.434-0.033,1.7-0.1C198.9,78.833,199.066,78.7,199.2,78.5z M200.9,76.2c0.3,0.434,0.449,0.934,0.449,1.5
				c0,0.7-0.217,1.267-0.649,1.7c-0.4,0.466-1.017,0.75-1.851,0.85c0.4,0.233,0.733,0.5,1,0.8c0.301,0.3,0.667,0.8,1.101,1.5
				l1.1,1.8h-2.2l-1.399-2.05c-0.467-0.7-0.783-1.133-0.95-1.3c-0.2-0.2-0.384-0.333-0.55-0.4c-0.2-0.066-0.517-0.1-0.95-0.1h-0.4
				v3.85h-1.85V75.1h3.9c1,0,1.732,0.067,2.199,0.2C200.283,75.5,200.633,75.8,200.9,76.2z M202.1,84.35l3.65-9.25h1.95l3.7,9.25
				h-2.051l-0.75-2.1H204.9l-0.75,2.1H202.1z M186.3,81.65c0.066,0.399,0.267,0.716,0.601,0.949c0.3,0.2,0.716,0.301,1.25,0.301
				c0.5,0,0.899-0.101,1.199-0.301c0.233-0.233,0.384-0.5,0.45-0.8c0.066-0.333,0.101-0.866,0.101-1.6V75.1h1.85v4.851
				c0,1.133-0.05,1.916-0.15,2.35c-0.1,0.467-0.283,0.851-0.55,1.15c-0.3,0.333-0.667,0.6-1.1,0.8
				c-0.434,0.167-1.017,0.25-1.75,0.25c-0.9,0-1.567-0.083-2-0.25c-0.467-0.233-0.834-0.517-1.101-0.85
				c-0.267-0.334-0.449-0.667-0.55-1c-0.1-0.534-0.149-1.317-0.149-2.351V75.1h1.85v5C186.25,80.9,186.267,81.417,186.3,81.65z
				 M183.2,76.65h-2.75v7.699h-1.9V76.65h-2.75V75.1h7.4V76.65z M172.75,75.1l3.7,9.25h-2l-0.851-2.1H169.9l-0.75,2.1h-2l3.6-9.25
				H172.75z M173.05,80.65l-1.3-3.4l-1.3,3.4H173.05z M222.8,77.75L220.9,77.8c-0.067-0.434-0.25-0.767-0.551-1
				c-0.267-0.2-0.649-0.3-1.149-0.3c-0.533,0-0.95,0.1-1.25,0.3c-0.2,0.167-0.3,0.367-0.3,0.601c0,0.199,0.1,0.383,0.3,0.55
				c0.2,0.2,0.767,0.399,1.7,0.6c0.866,0.233,1.517,0.467,1.949,0.7c0.467,0.233,0.817,0.533,1.051,0.9
				c0.267,0.399,0.399,0.899,0.399,1.5c0,0.533-0.149,1.033-0.45,1.5c-0.333,0.466-0.75,0.816-1.25,1.05
				c-0.566,0.2-1.25,0.3-2.05,0.3c-1.167,0-2.066-0.25-2.7-0.75c-0.6-0.566-0.967-1.366-1.1-2.4l1.85-0.199
				c0.101,0.633,0.317,1.1,0.65,1.399c0.333,0.233,0.783,0.351,1.35,0.351c0.601,0,1.051-0.101,1.351-0.301
				c0.333-0.267,0.5-0.583,0.5-0.949c0-0.2-0.084-0.384-0.25-0.551c-0.101-0.133-0.317-0.267-0.65-0.399
				c-0.167-0.066-0.667-0.184-1.5-0.351c-1-0.267-1.684-0.583-2.05-0.949c-0.6-0.534-0.9-1.167-0.9-1.9c0-0.467,0.134-0.9,0.4-1.3
				c0.267-0.4,0.65-0.717,1.15-0.95c0.5-0.2,1.1-0.3,1.8-0.3c1.166,0,2.05,0.25,2.649,0.75
				C222.417,76.233,222.733,76.917,222.8,77.75z M212.35,75.1h1.851v9.25h-1.851V75.1z M206.7,77.25l-1.25,3.4H208L206.7,77.25z
				 M120.3,76.65v7.699h-1.85V76.65h-2.75V75.1h7.35v1.551H120.3z M112.6,75.1l3.75,9.25h-2.05l-0.75-2.1h-3.75l-0.75,2.1h-2
				l3.6-9.25H112.6z M112.9,80.65l-1.25-3.4l-1.3,3.4H112.9z"/>
		</g>
	</g>
</g>
</svg>
